<svg xmlns="http://www.w3.org/2000/svg" viewBox="0 0 1440 280">
    <path fill="#ae5a4b" fill-opacity="1" d="M0,96L30,90.7C60,85,120,75,180,64C240,53,300,43,360,69.3C420,96,480,160,540,181.3C600,203,660,181,720,160C780,139,840,117,900,106.7C960,96,1020,96,1080,117.3C1140,139,1200,181,1260,202.7C1320,224,1380,224,1410,224L1440,224L1440,320L1410,320C1380,320,1320,320,1260,320C1200,320,1140,320,1080,320C1020,320,960,320,900,320C840,320,780,320,720,320C660,320,600,320,540,320C480,320,420,320,360,320C300,320,240,320,180,320C120,320,60,320,30,320L0,320Z"></path>
</svg>